<?xml version="1.0"?>
<svg xmlns="http://www.w3.org/2000/svg" xmlns:xlink="http://www.w3.org/1999/xlink" xmlns:svgjs="http://svgjs.com/svgjs" version="1.1" width="512" height="512" x="0" y="0" viewBox="0 0 512 512" style="enable-background:new 0 0 512 512" xml:space="preserve" class=""><g><link type="text/css" rel="stylesheet" id="dark-mode-general-link"/><link type="text/css" rel="stylesheet" id="dark-mode-custom-link"/><style lang="en" type="text/css" id="dark-mode-custom-style"/><path xmlns="http://www.w3.org/2000/svg" d="m256 512c-141.160156 0-256-114.839844-256-256s114.839844-256 256-256 256 114.839844 256 256-114.839844 256-256 256zm0-475.429688c-120.992188 0-219.429688 98.4375-219.429688 219.429688s98.4375 219.429688 219.429688 219.429688 219.429688-98.4375 219.429688-219.429688-98.4375-219.429688-219.429688-219.429688zm0 0" fill="#362a2a" data-original="#000000" style="" class=""/><path xmlns="http://www.w3.org/2000/svg" d="m347.429688 365.714844c-4.679688 0-9.359376-1.785156-12.929688-5.359375l-182.855469-182.855469c-7.144531-7.144531-7.144531-18.714844 0-25.855469 7.140625-7.140625 18.714844-7.144531 25.855469 0l182.855469 182.855469c7.144531 7.144531 7.144531 18.714844 0 25.855469-3.570313 3.574219-8.246094 5.359375-12.925781 5.359375zm0 0" fill="#362a2a" data-original="#000000" style="" class=""/><path xmlns="http://www.w3.org/2000/svg" d="m164.570312 365.714844c-4.679687 0-9.355468-1.785156-12.925781-5.359375-7.144531-7.140625-7.144531-18.714844 0-25.855469l182.855469-182.855469c7.144531-7.144531 18.714844-7.144531 25.855469 0 7.140625 7.140625 7.144531 18.714844 0 25.855469l-182.855469 182.855469c-3.570312 3.574219-8.25 5.359375-12.929688 5.359375zm0 0" fill="#362a2a" data-original="#000000" style="" class=""/></g></svg>
