<?xml version="1.0"?>
<svg xmlns="http://www.w3.org/2000/svg" xmlns:xlink="http://www.w3.org/1999/xlink" xmlns:svgjs="http://svgjs.com/svgjs" version="1.1" width="512" height="512" x="0" y="0" viewBox="0 0 512 512" style="enable-background:new 0 0 512 512" xml:space="preserve" class=""><g><link type="text/css" rel="stylesheet" id="dark-mode-general-link"/><link type="text/css" rel="stylesheet" id="dark-mode-custom-link"/><style lang="en" type="text/css" id="dark-mode-custom-style"/>
<g xmlns="http://www.w3.org/2000/svg">
	<g>
		<g>
			<path d="M156,256c0,11.046,8.954,20,20,20h60v60c0,11.046,8.954,20,20,20s20-8.954,20-20v-60h60c11.046,0,20-8.954,20-20     c0-11.046-8.954-20-20-20h-60v-60c0-11.046-8.954-20-20-20s-20,8.954-20,20v60h-60C164.954,236,156,244.954,156,256z" fill="#4d9e05" data-original="#000000" style="" class=""/>
			<path d="M160.406,61.8l25.869-10.716c10.204-4.228,15.051-15.927,10.823-26.132c-4.228-10.205-15.926-15.054-26.132-10.823     l-25.869,10.716c-10.204,4.228-15.051,15.927-10.823,26.132C138.488,61.148,150.168,66.038,160.406,61.8z" fill="#4d9e05" data-original="#000000" style="" class=""/>
			<path d="M256,0c-11.046,0-20,8.954-20,20s8.954,20,20,20c119.378,0,216,96.608,216,216c0,119.378-96.608,216-216,216     c-119.378,0-216-96.608-216-216c0-11.046-8.954-20-20-20s-20,8.954-20,20c0,141.483,114.497,256,256,256     c141.483,0,256-114.497,256-256C512,114.517,397.503,0,256,0z" fill="#4d9e05" data-original="#000000" style="" class=""/>
			<path d="M93.366,113.165l19.799-19.799c7.811-7.811,7.811-20.475,0-28.285c-7.811-7.81-20.475-7.811-28.285,0L65.081,84.88     c-7.811,7.811-7.811,20.475,0,28.285C72.89,120.974,85.555,120.976,93.366,113.165z" fill="#4d9e05" data-original="#000000" style="" class=""/>
			<path d="M24.952,197.099c10.227,4.236,21.914-0.642,26.132-10.823l10.716-25.87c4.228-10.205-0.619-21.904-10.823-26.132     c-10.207-4.227-21.904,0.619-26.132,10.823l-10.716,25.869C9.901,181.172,14.748,192.871,24.952,197.099z" fill="#4d9e05" data-original="#000000" style="" class=""/>
		</g>
	</g>
</g>
<g xmlns="http://www.w3.org/2000/svg">
</g>
<g xmlns="http://www.w3.org/2000/svg">
</g>
<g xmlns="http://www.w3.org/2000/svg">
</g>
<g xmlns="http://www.w3.org/2000/svg">
</g>
<g xmlns="http://www.w3.org/2000/svg">
</g>
<g xmlns="http://www.w3.org/2000/svg">
</g>
<g xmlns="http://www.w3.org/2000/svg">
</g>
<g xmlns="http://www.w3.org/2000/svg">
</g>
<g xmlns="http://www.w3.org/2000/svg">
</g>
<g xmlns="http://www.w3.org/2000/svg">
</g>
<g xmlns="http://www.w3.org/2000/svg">
</g>
<g xmlns="http://www.w3.org/2000/svg">
</g>
<g xmlns="http://www.w3.org/2000/svg">
</g>
<g xmlns="http://www.w3.org/2000/svg">
</g>
<g xmlns="http://www.w3.org/2000/svg">
</g>
</g></svg>
